<svg preserveAspectRatio="none" overflow="visible" style="display: block;" width="16" height="16" viewBox="0 0 16 16" fill="none" xmlns="http://www.w3.org/2000/svg">
<g id="vuesax/linear/document-copy">
<path id="Vector" d="M11.3333 8.93333V10.9333C11.3333 13.6 10.2667 14.6667 7.6 14.6667H5.06667C2.4 14.6667 1.33333 13.6 1.33333 10.9333V8.4C1.33333 5.73333 2.4 4.66667 5.06667 4.66667H7.06667" stroke="white" stroke-linecap="round" stroke-linejoin="round"/>
<path id="Vector_2" d="M11.3333 8.93333H9.2C7.6 8.93333 7.06667 8.4 7.06667 6.8V4.66667L11.3333 8.93333Z" stroke="white" stroke-linecap="round" stroke-linejoin="round"/>
<path id="Vector_3" d="M7.73333 1.33333H10.4" stroke="white" stroke-linecap="round" stroke-linejoin="round"/>
<path id="Vector_4" d="M4.66667 3.33333C4.66667 2.22667 5.56 1.33333 6.66667 1.33333H8.41333" stroke="white" stroke-linecap="round" stroke-linejoin="round"/>
<path id="Vector_5" d="M14.6667 5.33333V9.46C14.6667 10.4933 13.8267 11.3333 12.7933 11.3333" stroke="white" stroke-linecap="round" stroke-linejoin="round"/>
<path id="Vector_6" d="M14.6667 5.33333H12.6667C11.1667 5.33333 10.6667 4.83333 10.6667 3.33333V1.33333L14.6667 5.33333Z" stroke="white" stroke-linecap="round" stroke-linejoin="round"/>
<g id="Vector_7" opacity="0">
</g>
</g>
</svg>
